# xmcd CD database file
# Copyright (C) 1997 Ti Kan
# 
# Track frame offsets:
#     150
#     12540
#     22525
#     32448
#     43688
#     54660
#     67325
#     76618
#     86500
#     97338
# 
# Disc length: 1442 seconds
# 
# Revision: 1
# Processed by: cddbd v1.5.2PL0 Copyright (c) Steve Scherf et al.
# Submitted via: DiscPlay 4.0.4
# 
DISCID=7505a00a
DTITLE=BARBARA MANDRELL - THE ULTIMATE BARBARA MANDRELL
DYEAR=1993
DGENRE=Country
TTITLE0=MIDNIGHT OIL
TTITLE1=TREAT HIM RIGHT
TTITLE2=HOW CAN IT BE WRONG
TTITLE3=SOMETHING
TTITLE4=SHOW ME
TTITLE5=A VERY SPECIAL LOVE SONG
TTITLE6=TONIGHT MY BABY'S COMING HOME
TTITLE7=AFTER CLOSING TIME
TTITLE8=I STARTED LOVING YOU AGAIN
TTITLE9=SATISFIED
EXTD=
EXTT0=
EXTT1=
EXTT2=
EXTT3=
EXTT4=
EXTT5=
EXTT6=
EXTT7=
EXTT8=
EXTT9=
PLAYORDER=
